<svg width="100%" viewBox="0 0 680 290" xmlns="http://www.w3.org/2000/svg">
<style>
text{font-family:-apple-system,BlinkMacSystemFont,"Segoe UI",Helvetica,Arial,sans-serif}
.h{font-size:12.5px;font-weight:600}
.s{font-size:10px}
.m{font-size:11px;font-weight:500}

.en rect{fill:#FAEEDA;stroke:#854F0B;stroke-width:.75}
.en .h{fill:#412402}
.ex rect{fill:#E6F1FB;stroke:#185FA5;stroke-width:.75}
.ex .h{fill:#042C53} .ex .s{fill:#185FA5}
.rl rect{fill:#EEEDFE;stroke:#534AB7;stroke-width:.75}
.rl .h{fill:#26215C} .rl .s{fill:#534AB7}
.up rect{fill:#E1F5EE;stroke:#0F6E56;stroke-width:.75}
.up .h{fill:#04342C} .up .s{fill:#0F6E56}
.rm rect{fill:#FCEBEB;stroke:#A32D2D;stroke-width:.75}
.rm .h{fill:#501313} .rm .s{fill:#A32D2D}
.lb rect{fill:#F1EFE8;stroke:#5F5E5A;stroke-width:.5}
.lb .m{fill:#2C2C2A}
.lbc{fill:none;stroke:#5F5E5A;stroke-width:.5;stroke-dasharray:5 3;opacity:.5}
.lbl{fill:#5F5E5A;font-size:11px;font-weight:600}

.arr{stroke:#57606a;stroke-width:1;fill:none}
.arr-d{stroke:#57606a;stroke-width:.75;fill:none;stroke-dasharray:3 2}

@media(prefers-color-scheme:dark){
.en rect{fill:#633806;stroke:#EF9F27} .en .h{fill:#FAEEDA}
.ex rect{fill:#0C447C;stroke:#85B7EB} .ex .h{fill:#E6F1FB} .ex .s{fill:#B5D4F4}
.rl rect{fill:#3C3489;stroke:#AFA9EC} .rl .h{fill:#EEEDFE} .rl .s{fill:#CECBF6}
.up rect{fill:#085041;stroke:#5DCAA5} .up .h{fill:#E1F5EE} .up .s{fill:#9FE1CB}
.rm rect{fill:#791F1F;stroke:#F09595} .rm .h{fill:#FCEBEB} .rm .s{fill:#F7C1C1}
.lb rect{fill:#444441;stroke:#B4B2A9} .lb .m{fill:#F1EFE8}
.lbc{stroke:#B4B2A9} .lbl{fill:#B4B2A9}
.arr{stroke:#8b949e} .arr-d{stroke:#8b949e}
}
</style>
<defs>
<marker id="a" viewBox="0 0 10 10" refX="9" refY="5" markerWidth="5" markerHeight="5" orient="auto"><path d="M1 2L7 5L1 8" fill="none" stroke-width="1.5" stroke-linecap="round" stroke-linejoin="round" class="arr"/></marker>
</defs>

<g class="en"><rect x="275" y="10" width="130" height="38" rx="8"/>
<text class="h" x="340" y="32" text-anchor="middle" dominant-baseline="central">setup.sh</text></g>

<path d="M295 48 L72 82" class="arr" marker-end="url(#a)"/>
<path d="M315 48 L210 82" class="arr" marker-end="url(#a)"/>
<path d="M340 48 L340 82" class="arr" marker-end="url(#a)"/>
<path d="M365 48 L470 82" class="arr" marker-end="url(#a)"/>
<path d="M385 48 L608 82" class="arr" marker-end="url(#a)"/>

<g class="ex"><rect x="12" y="84" width="120" height="42" rx="8"/>
<text class="h" x="72" y="98" text-anchor="middle" dominant-baseline="central">setup-exit.sh</text>
<text class="s" x="72" y="114" text-anchor="middle" dominant-baseline="central">exit node</text></g>

<g class="rl"><rect x="148" y="84" width="124" height="42" rx="8"/>
<text class="h" x="210" y="98" text-anchor="middle" dominant-baseline="central">setup-relay.sh</text>
<text class="s" x="210" y="114" text-anchor="middle" dominant-baseline="central">relay node</text></g>

<g class="up"><rect x="288" y="84" width="112" height="42" rx="8"/>
<text class="h" x="344" y="98" text-anchor="middle" dominant-baseline="central">update-exit.sh</text>
<text class="s" x="344" y="114" text-anchor="middle" dominant-baseline="central">update exit</text></g>

<g class="up"><rect x="416" y="84" width="114" height="42" rx="8"/>
<text class="h" x="473" y="98" text-anchor="middle" dominant-baseline="central">update-relay.sh</text>
<text class="s" x="473" y="114" text-anchor="middle" dominant-baseline="central">update relay</text></g>

<g class="rm"><rect x="546" y="84" width="122" height="42" rx="8"/>
<text class="h" x="607" y="98" text-anchor="middle" dominant-baseline="central">uninstall.sh</text>
<text class="s" x="607" y="114" text-anchor="middle" dominant-baseline="central">remove all</text></g>

<path d="M72 126 L72 158" class="arr-d"/>
<path d="M210 126 L210 158" class="arr-d"/>
<path d="M344 126 L344 158" class="arr-d"/>
<path d="M473 126 L473 158" class="arr-d"/>

<rect class="lbc" x="16" y="158" width="540" height="118" rx="10"/>
<text class="lbl" x="36" y="176">lib/</text>

<g class="lb"><rect x="32" y="186" width="152" height="28" rx="6"/>
<text class="m" x="108" y="203" text-anchor="middle" dominant-baseline="central">common.sh</text></g>
<g class="lb"><rect x="200" y="186" width="152" height="28" rx="6"/>
<text class="m" x="276" y="203" text-anchor="middle" dominant-baseline="central">security.sh</text></g>
<g class="lb"><rect x="368" y="186" width="152" height="28" rx="6"/>
<text class="m" x="444" y="203" text-anchor="middle" dominant-baseline="central">reality.sh</text></g>

<g class="lb"><rect x="32" y="228" width="152" height="28" rx="6"/>
<text class="m" x="108" y="245" text-anchor="middle" dominant-baseline="central">xray.sh</text></g>
<g class="lb"><rect x="200" y="228" width="152" height="28" rx="6"/>
<text class="m" x="276" y="245" text-anchor="middle" dominant-baseline="central">3xui.sh</text></g>
<g class="lb"><rect x="368" y="228" width="152" height="28" rx="6"/>
<text class="m" x="444" y="245" text-anchor="middle" dominant-baseline="central">verify.sh</text></g>
</svg>
